<svg xmlns="http://www.w3.org/2000/svg" viewBox="0 0 512 512" width="100%" height="100%">
  <defs>
    <linearGradient id="goldLinear" x1="0%" y1="0%" x2="100%" y2="100%">
      <stop offset="0%" stop-color="#FDF4DC" />
      <stop offset="35%" stop-color="#E5C158" />
      <stop offset="70%" stop-color="#D4AF37" />
      <stop offset="100%" stop-color="#9A7B1C" />
    </linearGradient>
    <linearGradient id="darkBg" x1="0%" y1="0%" x2="100%" y2="100%">
      <stop offset="0%" stop-color="#141414" />
      <stop offset="100%" stop-color="#050505" />
    </linearGradient>
    <radialGradient id="goldGlow" cx="50%" cy="40%" r="60%">
      <stop offset="0%" stop-color="#D4AF37" stop-opacity="0.25" />
      <stop offset="100%" stop-color="#D4AF37" stop-opacity="0" />
    </radialGradient>
    <filter id="subtleShadow" x="-10%" y="-10%" width="120%" height="120%">
      <feDropShadow dx="0" dy="4" stdDeviation="6" flood-color="#000000" flood-opacity="0.6"/>
    </filter>
  </defs>
  <rect width="512" height="512" rx="112" fill="url(#darkBg)" />
  <rect width="512" height="512" rx="112" fill="url(#goldGlow)" />
  <rect x="8" y="8" width="496" height="496" rx="104" fill="none" stroke="url(#goldLinear)" stroke-width="3" stroke-opacity="0.4" />
  <g filter="url(#subtleShadow)">
    <path d="M 120 120 L 204 120 L 256 244 L 216 264 Z" fill="url(#goldLinear)" />
    <path d="M 392 120 L 308 120 L 256 244 L 296 264 Z" fill="url(#goldLinear)" />
    <path d="M 232 236 L 280 236 L 280 392 L 232 392 Z" fill="url(#goldLinear)" />
    <polygon points="256,120 274,152 256,184 238,152" fill="url(#goldLinear)" opacity="0.95" />
    <rect x="110" y="112" width="94" height="8" rx="2" fill="url(#goldLinear)" />
    <rect x="308" y="112" width="94" height="8" rx="2" fill="url(#goldLinear)" />
    <rect x="216" y="388" width="80" height="8" rx="2" fill="url(#goldLinear)" />
  </g>
</svg>
